<mxfile host="app.diagrams.net" modified="2023-10-24T00:53:36.784Z" agent="Mozilla/5.0 (Windows NT 10.0; Win64; x64) AppleWebKit/537.36 (KHTML, like Gecko) Chrome/116.0.0.0 Safari/537.36 OPR/102.0.0.0" etag="EdsL-7C6pCXWUK_NYtwH" version="22.0.6" type="github">
  <diagram name="Сторінка-1" id="DgOb8yzps_mqlI71knQb">
    <mxGraphModel dx="1258" dy="761" grid="1" gridSize="10" guides="1" tooltips="1" connect="1" arrows="1" fold="1" page="1" pageScale="1" pageWidth="827" pageHeight="1169" math="0" shadow="0">
      <root>
        <mxCell id="0" />
        <mxCell id="1" parent="0" />
        <mxCell id="tQqE4PKpCWyvDLLHspl0-1" value="user" style="shape=umlActor;verticalLabelPosition=bottom;verticalAlign=top;html=1;outlineConnect=0;" parent="1" vertex="1">
          <mxGeometry x="70" y="100" width="30" height="60" as="geometry" />
        </mxCell>
        <mxCell id="tQqE4PKpCWyvDLLHspl0-3" value="calculator" style="whiteSpace=wrap;html=1;aspect=fixed;" parent="1" vertex="1">
          <mxGeometry x="710" y="80" width="80" height="80" as="geometry" />
        </mxCell>
        <mxCell id="tQqE4PKpCWyvDLLHspl0-4" value="" style="endArrow=none;dashed=1;html=1;strokeWidth=2;rounded=0;entryX=0.625;entryY=1;entryDx=0;entryDy=0;entryPerimeter=0;" parent="1" source="4oiQz6_BYMb5blrzFG_c-23" target="4oiQz6_BYMb5blrzFG_c-1" edge="1">
          <mxGeometry width="50" height="50" relative="1" as="geometry">
            <mxPoint x="390" y="770" as="sourcePoint" />
            <mxPoint x="500" y="190" as="targetPoint" />
          </mxGeometry>
        </mxCell>
        <mxCell id="tQqE4PKpCWyvDLLHspl0-6" value="" style="endArrow=none;dashed=1;html=1;strokeWidth=2;rounded=0;entryX=0.5;entryY=1;entryDx=0;entryDy=0;" parent="1" edge="1">
          <mxGeometry width="50" height="50" relative="1" as="geometry">
            <mxPoint x="84.5" y="760" as="sourcePoint" />
            <mxPoint x="84.5" y="170" as="targetPoint" />
          </mxGeometry>
        </mxCell>
        <mxCell id="tQqE4PKpCWyvDLLHspl0-7" value="вводить вираз" style="endArrow=open;html=1;rounded=0;endFill=0;" parent="1" edge="1">
          <mxGeometry width="50" height="50" relative="1" as="geometry">
            <mxPoint x="90" y="200" as="sourcePoint" />
            <mxPoint x="400" y="200" as="targetPoint" />
          </mxGeometry>
        </mxCell>
        <mxCell id="tQqE4PKpCWyvDLLHspl0-8" value="порахувати" style="endArrow=classic;html=1;rounded=0;" parent="1" edge="1">
          <mxGeometry width="50" height="50" relative="1" as="geometry">
            <mxPoint x="90" y="240" as="sourcePoint" />
            <mxPoint x="390" y="240" as="targetPoint" />
          </mxGeometry>
        </mxCell>
        <mxCell id="tQqE4PKpCWyvDLLHspl0-9" value="відповідь" style="endArrow=classic;html=1;rounded=0;dashed=1;dashPattern=8 8;" parent="1" edge="1">
          <mxGeometry width="50" height="50" relative="1" as="geometry">
            <mxPoint x="390" y="320" as="sourcePoint" />
            <mxPoint x="90" y="320" as="targetPoint" />
          </mxGeometry>
        </mxCell>
        <mxCell id="tQqE4PKpCWyvDLLHspl0-11" value="зберегти" style="endArrow=classic;html=1;rounded=0;" parent="1" edge="1">
          <mxGeometry width="50" height="50" relative="1" as="geometry">
            <mxPoint x="90" y="340" as="sourcePoint" />
            <mxPoint x="400" y="340" as="targetPoint" />
          </mxGeometry>
        </mxCell>
        <mxCell id="tQqE4PKpCWyvDLLHspl0-12" value="програма закривається" style="endArrow=classic;html=1;rounded=0;" parent="1" edge="1">
          <mxGeometry x="-0.0818" y="-15" width="50" height="50" relative="1" as="geometry">
            <mxPoint x="400" y="660" as="sourcePoint" />
            <mxPoint x="400" y="700" as="targetPoint" />
            <Array as="points">
              <mxPoint x="480" y="660" />
              <mxPoint x="490" y="700" />
            </Array>
            <mxPoint as="offset" />
          </mxGeometry>
        </mxCell>
        <mxCell id="tQqE4PKpCWyvDLLHspl0-14" value="підтвердження збереження" style="endArrow=classic;html=1;rounded=0;dashed=1;dashPattern=12 12;" parent="1" edge="1">
          <mxGeometry width="50" height="50" relative="1" as="geometry">
            <mxPoint x="390" y="390" as="sourcePoint" />
            <mxPoint x="90" y="390" as="targetPoint" />
          </mxGeometry>
        </mxCell>
        <mxCell id="tQqE4PKpCWyvDLLHspl0-15" value="довідка" style="endArrow=classic;html=1;rounded=0;endFill=1;" parent="1" edge="1">
          <mxGeometry width="50" height="50" relative="1" as="geometry">
            <mxPoint x="90" y="430" as="sourcePoint" />
            <mxPoint x="390" y="430" as="targetPoint" />
          </mxGeometry>
        </mxCell>
        <mxCell id="tQqE4PKpCWyvDLLHspl0-16" value="додати рядок" style="endArrow=open;html=1;rounded=0;endFill=0;" parent="1" edge="1">
          <mxGeometry width="50" height="50" relative="1" as="geometry">
            <mxPoint x="90" y="520" as="sourcePoint" />
            <mxPoint x="390" y="520" as="targetPoint" />
          </mxGeometry>
        </mxCell>
        <mxCell id="tQqE4PKpCWyvDLLHspl0-17" value="додати стовпець" style="endArrow=open;html=1;rounded=0;endFill=0;" parent="1" edge="1">
          <mxGeometry width="50" height="50" relative="1" as="geometry">
            <mxPoint x="90" y="600" as="sourcePoint" />
            <mxPoint x="390" y="600" as="targetPoint" />
          </mxGeometry>
        </mxCell>
        <mxCell id="tQqE4PKpCWyvDLLHspl0-18" value="вийти" style="endArrow=open;html=1;rounded=0;endFill=0;entryX=0;entryY=0.5;entryDx=0;entryDy=0;" parent="1" edge="1" target="tQqE4PKpCWyvDLLHspl0-24">
          <mxGeometry width="50" height="50" relative="1" as="geometry">
            <mxPoint x="90" y="680" as="sourcePoint" />
            <mxPoint x="330" y="680" as="targetPoint" />
          </mxGeometry>
        </mxCell>
        <mxCell id="tQqE4PKpCWyvDLLHspl0-19" value="збережено" style="endArrow=classic;html=1;rounded=0;" parent="1" edge="1">
          <mxGeometry width="50" height="50" relative="1" as="geometry">
            <mxPoint x="400" y="350" as="sourcePoint" />
            <mxPoint x="400" y="380" as="targetPoint" />
            <Array as="points">
              <mxPoint x="490" y="350" />
              <mxPoint x="490" y="380" />
            </Array>
            <mxPoint as="offset" />
          </mxGeometry>
        </mxCell>
        <mxCell id="tQqE4PKpCWyvDLLHspl0-20" value="додається стовпець" style="endArrow=classic;html=1;rounded=0;" parent="1" edge="1">
          <mxGeometry width="50" height="50" relative="1" as="geometry">
            <mxPoint x="520" y="610" as="sourcePoint" />
            <mxPoint x="520" y="650" as="targetPoint" />
            <Array as="points">
              <mxPoint x="600" y="610" />
              <mxPoint x="610" y="650" />
            </Array>
            <mxPoint as="offset" />
          </mxGeometry>
        </mxCell>
        <mxCell id="tQqE4PKpCWyvDLLHspl0-21" value="додається рядок" style="endArrow=classic;html=1;rounded=0;" parent="1" edge="1">
          <mxGeometry width="50" height="50" relative="1" as="geometry">
            <mxPoint x="520" y="530" as="sourcePoint" />
            <mxPoint x="520" y="570" as="targetPoint" />
            <Array as="points">
              <mxPoint x="600" y="530" />
              <mxPoint x="610" y="570" />
            </Array>
            <mxPoint as="offset" />
          </mxGeometry>
        </mxCell>
        <mxCell id="tQqE4PKpCWyvDLLHspl0-23" value="надається інформація" style="endArrow=classic;html=1;rounded=0;dashed=1;dashPattern=8 8;" parent="1" edge="1">
          <mxGeometry width="50" height="50" relative="1" as="geometry">
            <mxPoint x="390" y="470" as="sourcePoint" />
            <mxPoint x="80" y="470" as="targetPoint" />
          </mxGeometry>
        </mxCell>
        <mxCell id="4oiQz6_BYMb5blrzFG_c-1" value="App" style="whiteSpace=wrap;html=1;aspect=fixed;" vertex="1" parent="1">
          <mxGeometry x="350" y="80" width="80" height="80" as="geometry" />
        </mxCell>
        <mxCell id="4oiQz6_BYMb5blrzFG_c-3" value="" style="endArrow=none;dashed=1;html=1;strokeWidth=2;rounded=0;" edge="1" parent="1" source="4oiQz6_BYMb5blrzFG_c-18" target="tQqE4PKpCWyvDLLHspl0-3">
          <mxGeometry width="50" height="50" relative="1" as="geometry">
            <mxPoint x="750" y="760" as="sourcePoint" />
            <mxPoint x="669.5" y="190" as="targetPoint" />
          </mxGeometry>
        </mxCell>
        <mxCell id="4oiQz6_BYMb5blrzFG_c-4" value="table" style="whiteSpace=wrap;html=1;aspect=fixed;" vertex="1" parent="1">
          <mxGeometry x="480" y="80" width="80" height="80" as="geometry" />
        </mxCell>
        <mxCell id="4oiQz6_BYMb5blrzFG_c-5" value="" style="endArrow=none;dashed=1;html=1;strokeWidth=2;rounded=0;entryX=0.5;entryY=1;entryDx=0;entryDy=0;" edge="1" parent="1" source="4oiQz6_BYMb5blrzFG_c-34" target="4oiQz6_BYMb5blrzFG_c-4">
          <mxGeometry width="50" height="50" relative="1" as="geometry">
            <mxPoint x="520" y="780" as="sourcePoint" />
            <mxPoint x="530" y="170" as="targetPoint" />
          </mxGeometry>
        </mxCell>
        <mxCell id="4oiQz6_BYMb5blrzFG_c-6" value="cell" style="whiteSpace=wrap;html=1;aspect=fixed;" vertex="1" parent="1">
          <mxGeometry x="600" y="80" width="80" height="80" as="geometry" />
        </mxCell>
        <mxCell id="4oiQz6_BYMb5blrzFG_c-7" value="" style="endArrow=none;dashed=1;html=1;strokeWidth=2;rounded=0;" edge="1" parent="1" target="4oiQz6_BYMb5blrzFG_c-6" source="4oiQz6_BYMb5blrzFG_c-31">
          <mxGeometry width="50" height="50" relative="1" as="geometry">
            <mxPoint x="640" y="770" as="sourcePoint" />
            <mxPoint x="559.5" y="190" as="targetPoint" />
          </mxGeometry>
        </mxCell>
        <mxCell id="4oiQz6_BYMb5blrzFG_c-10" value="addColumn" style="endArrow=open;html=1;rounded=0;endFill=0;" edge="1" parent="1" source="4oiQz6_BYMb5blrzFG_c-27">
          <mxGeometry width="50" height="50" relative="1" as="geometry">
            <mxPoint x="390" y="610" as="sourcePoint" />
            <mxPoint x="520" y="610" as="targetPoint" />
          </mxGeometry>
        </mxCell>
        <mxCell id="4oiQz6_BYMb5blrzFG_c-11" value="addRow" style="endArrow=open;html=1;rounded=0;endFill=0;" edge="1" parent="1">
          <mxGeometry width="50" height="50" relative="1" as="geometry">
            <mxPoint x="390" y="530" as="sourcePoint" />
            <mxPoint x="520" y="530" as="targetPoint" />
          </mxGeometry>
        </mxCell>
        <mxCell id="4oiQz6_BYMb5blrzFG_c-12" value="editContent" style="endArrow=open;html=1;rounded=0;endFill=0;exitX=0;exitY=0.5;exitDx=0;exitDy=0;" edge="1" parent="1" source="4oiQz6_BYMb5blrzFG_c-21">
          <mxGeometry width="50" height="50" relative="1" as="geometry">
            <mxPoint x="400" y="220" as="sourcePoint" />
            <mxPoint x="640" y="220" as="targetPoint" />
          </mxGeometry>
        </mxCell>
        <mxCell id="4oiQz6_BYMb5blrzFG_c-13" value="calculate" style="endArrow=classic;html=1;rounded=0;" edge="1" parent="1">
          <mxGeometry width="50" height="50" relative="1" as="geometry">
            <mxPoint x="400" y="250" as="sourcePoint" />
            <mxPoint x="740" y="250" as="targetPoint" />
          </mxGeometry>
        </mxCell>
        <mxCell id="4oiQz6_BYMb5blrzFG_c-14" value="read" style="endArrow=classic;html=1;rounded=0;" edge="1" parent="1">
          <mxGeometry width="50" height="50" relative="1" as="geometry">
            <mxPoint x="750" y="270" as="sourcePoint" />
            <mxPoint x="640" y="270" as="targetPoint" />
          </mxGeometry>
        </mxCell>
        <mxCell id="4oiQz6_BYMb5blrzFG_c-15" value="editContent" style="endArrow=classic;html=1;rounded=0;dashed=1;dashPattern=8 8;" edge="1" parent="1">
          <mxGeometry width="50" height="50" relative="1" as="geometry">
            <mxPoint x="750" y="310" as="sourcePoint" />
            <mxPoint x="410" y="310" as="targetPoint" />
            <mxPoint as="offset" />
          </mxGeometry>
        </mxCell>
        <mxCell id="4oiQz6_BYMb5blrzFG_c-16" value="verifyValues" style="endArrow=classic;html=1;rounded=0;dashed=1;dashPattern=8 8;" edge="1" parent="1">
          <mxGeometry width="50" height="50" relative="1" as="geometry">
            <mxPoint x="640" y="280" as="sourcePoint" />
            <mxPoint x="750" y="280" as="targetPoint" />
          </mxGeometry>
        </mxCell>
        <mxCell id="4oiQz6_BYMb5blrzFG_c-17" value="calculation" style="endArrow=classic;html=1;rounded=0;" edge="1" parent="1">
          <mxGeometry x="-0.0588" y="-5" width="50" height="50" relative="1" as="geometry">
            <mxPoint x="750" y="290" as="sourcePoint" />
            <mxPoint x="750" y="300" as="targetPoint" />
            <Array as="points">
              <mxPoint x="830" y="290" />
              <mxPoint x="830" y="300" />
            </Array>
            <mxPoint as="offset" />
          </mxGeometry>
        </mxCell>
        <mxCell id="4oiQz6_BYMb5blrzFG_c-19" value="" style="endArrow=none;dashed=1;html=1;strokeWidth=2;rounded=0;" edge="1" parent="1" target="4oiQz6_BYMb5blrzFG_c-18">
          <mxGeometry width="50" height="50" relative="1" as="geometry">
            <mxPoint x="750" y="760" as="sourcePoint" />
            <mxPoint x="750" y="160" as="targetPoint" />
          </mxGeometry>
        </mxCell>
        <mxCell id="4oiQz6_BYMb5blrzFG_c-18" value="" style="rounded=0;whiteSpace=wrap;html=1;opacity=50;" vertex="1" parent="1">
          <mxGeometry x="740" y="260" width="20" height="50" as="geometry" />
        </mxCell>
        <mxCell id="4oiQz6_BYMb5blrzFG_c-20" value="" style="rounded=0;whiteSpace=wrap;html=1;opacity=50;" vertex="1" parent="1">
          <mxGeometry x="630" y="200" width="20" height="50" as="geometry" />
        </mxCell>
        <mxCell id="4oiQz6_BYMb5blrzFG_c-22" value="" style="endArrow=open;html=1;rounded=0;endFill=0;" edge="1" parent="1" target="4oiQz6_BYMb5blrzFG_c-21">
          <mxGeometry width="50" height="50" relative="1" as="geometry">
            <mxPoint x="400" y="220" as="sourcePoint" />
            <mxPoint x="640" y="220" as="targetPoint" />
          </mxGeometry>
        </mxCell>
        <mxCell id="4oiQz6_BYMb5blrzFG_c-21" value="" style="rounded=0;whiteSpace=wrap;html=1;opacity=50;" vertex="1" parent="1">
          <mxGeometry x="390" y="190" width="20" height="60" as="geometry" />
        </mxCell>
        <mxCell id="4oiQz6_BYMb5blrzFG_c-24" value="" style="endArrow=none;dashed=1;html=1;strokeWidth=2;rounded=0;entryX=0.625;entryY=1;entryDx=0;entryDy=0;entryPerimeter=0;" edge="1" parent="1" source="4oiQz6_BYMb5blrzFG_c-25" target="4oiQz6_BYMb5blrzFG_c-23">
          <mxGeometry width="50" height="50" relative="1" as="geometry">
            <mxPoint x="390" y="770" as="sourcePoint" />
            <mxPoint x="400" y="160" as="targetPoint" />
          </mxGeometry>
        </mxCell>
        <mxCell id="4oiQz6_BYMb5blrzFG_c-23" value="" style="rounded=0;whiteSpace=wrap;html=1;opacity=50;" vertex="1" parent="1">
          <mxGeometry x="390" y="300" width="20" height="190" as="geometry" />
        </mxCell>
        <mxCell id="4oiQz6_BYMb5blrzFG_c-26" value="" style="endArrow=none;dashed=1;html=1;strokeWidth=2;rounded=0;entryX=0.625;entryY=1;entryDx=0;entryDy=0;entryPerimeter=0;" edge="1" parent="1" source="4oiQz6_BYMb5blrzFG_c-27" target="4oiQz6_BYMb5blrzFG_c-25">
          <mxGeometry width="50" height="50" relative="1" as="geometry">
            <mxPoint x="390" y="770" as="sourcePoint" />
            <mxPoint x="403" y="490" as="targetPoint" />
          </mxGeometry>
        </mxCell>
        <mxCell id="4oiQz6_BYMb5blrzFG_c-25" value="" style="rounded=0;whiteSpace=wrap;html=1;opacity=50;" vertex="1" parent="1">
          <mxGeometry x="390" y="500" width="20" height="50" as="geometry" />
        </mxCell>
        <mxCell id="4oiQz6_BYMb5blrzFG_c-28" value="" style="endArrow=open;html=1;rounded=0;endFill=0;" edge="1" parent="1" target="4oiQz6_BYMb5blrzFG_c-27">
          <mxGeometry width="50" height="50" relative="1" as="geometry">
            <mxPoint x="390" y="610" as="sourcePoint" />
            <mxPoint x="520" y="610" as="targetPoint" />
          </mxGeometry>
        </mxCell>
        <mxCell id="4oiQz6_BYMb5blrzFG_c-29" value="" style="endArrow=none;dashed=1;html=1;strokeWidth=2;rounded=0;entryX=0.625;entryY=1;entryDx=0;entryDy=0;entryPerimeter=0;" edge="1" parent="1" source="tQqE4PKpCWyvDLLHspl0-24" target="4oiQz6_BYMb5blrzFG_c-27">
          <mxGeometry width="50" height="50" relative="1" as="geometry">
            <mxPoint x="400" y="770" as="sourcePoint" />
            <mxPoint x="403" y="550" as="targetPoint" />
          </mxGeometry>
        </mxCell>
        <mxCell id="4oiQz6_BYMb5blrzFG_c-27" value="" style="rounded=0;whiteSpace=wrap;html=1;opacity=50;" vertex="1" parent="1">
          <mxGeometry x="390" y="585" width="20" height="50" as="geometry" />
        </mxCell>
        <mxCell id="4oiQz6_BYMb5blrzFG_c-30" value="" style="endArrow=none;dashed=1;html=1;strokeWidth=2;rounded=0;entryX=0.625;entryY=1;entryDx=0;entryDy=0;entryPerimeter=0;" edge="1" parent="1" target="tQqE4PKpCWyvDLLHspl0-24">
          <mxGeometry width="50" height="50" relative="1" as="geometry">
            <mxPoint x="400" y="770" as="sourcePoint" />
            <mxPoint x="403" y="635" as="targetPoint" />
          </mxGeometry>
        </mxCell>
        <mxCell id="tQqE4PKpCWyvDLLHspl0-24" value="" style="rounded=0;whiteSpace=wrap;html=1;opacity=50;" parent="1" vertex="1">
          <mxGeometry x="390" y="650" width="20" height="60" as="geometry" />
        </mxCell>
        <mxCell id="4oiQz6_BYMb5blrzFG_c-33" value="" style="endArrow=none;dashed=1;html=1;strokeWidth=2;rounded=0;" edge="1" parent="1" target="4oiQz6_BYMb5blrzFG_c-31">
          <mxGeometry width="50" height="50" relative="1" as="geometry">
            <mxPoint x="640" y="770" as="sourcePoint" />
            <mxPoint x="640" y="160" as="targetPoint" />
          </mxGeometry>
        </mxCell>
        <mxCell id="4oiQz6_BYMb5blrzFG_c-31" value="" style="rounded=0;whiteSpace=wrap;html=1;opacity=50;" vertex="1" parent="1">
          <mxGeometry x="630" y="260" width="20" height="40" as="geometry" />
        </mxCell>
        <mxCell id="4oiQz6_BYMb5blrzFG_c-35" value="" style="endArrow=none;dashed=1;html=1;strokeWidth=2;rounded=0;entryX=0.5;entryY=1;entryDx=0;entryDy=0;" edge="1" parent="1" source="4oiQz6_BYMb5blrzFG_c-36" target="4oiQz6_BYMb5blrzFG_c-34">
          <mxGeometry width="50" height="50" relative="1" as="geometry">
            <mxPoint x="520" y="780" as="sourcePoint" />
            <mxPoint x="520" y="160" as="targetPoint" />
          </mxGeometry>
        </mxCell>
        <mxCell id="4oiQz6_BYMb5blrzFG_c-34" value="" style="rounded=0;whiteSpace=wrap;html=1;opacity=50;" vertex="1" parent="1">
          <mxGeometry x="510" y="520" width="20" height="60" as="geometry" />
        </mxCell>
        <mxCell id="4oiQz6_BYMb5blrzFG_c-37" value="" style="endArrow=none;dashed=1;html=1;strokeWidth=2;rounded=0;entryX=0.5;entryY=1;entryDx=0;entryDy=0;" edge="1" parent="1" target="4oiQz6_BYMb5blrzFG_c-36">
          <mxGeometry width="50" height="50" relative="1" as="geometry">
            <mxPoint x="520" y="780" as="sourcePoint" />
            <mxPoint x="520" y="580" as="targetPoint" />
          </mxGeometry>
        </mxCell>
        <mxCell id="4oiQz6_BYMb5blrzFG_c-36" value="" style="rounded=0;whiteSpace=wrap;html=1;opacity=50;" vertex="1" parent="1">
          <mxGeometry x="510" y="600" width="20" height="60" as="geometry" />
        </mxCell>
      </root>
    </mxGraphModel>
  </diagram>
</mxfile>
